<svg width="28" height="15" viewBox="0 0 28 15" version="1.1" xmlns="http://www.w3.org/2000/svg" xmlns:xlink="http://www.w3.org/1999/xlink">
<title>Subtract</title>
<desc>Created using Figma</desc>
<g id="Canvas" transform="translate(2700 3675)">
<g id="Subtract">
<use xlink:href="#path0_fill" transform="translate(-2697 -3673)" fill="#FFC526"/>
<mask id="mask0_outline_out">
<rect id="mask0_outline_inv" fill="white" x="-3" y="-2" width="28" height="15" transform="translate(-2697 -3673)"/>
<use xlink:href="#path0_fill" fill="black" transform="translate(-2697 -3673)"/>
</mask>
<g mask="url(#mask0_outline_out)">
<use xlink:href="#path1_stroke_2x" transform="translate(-2697 -3673)" fill="#6788A7"/>
</g>
</g>
</g>
<defs>
<path id="path0_fill" fill-rule="evenodd" d="M 0 5.5L 5.04175 2.979L 9.82776 5.37207L 4.78589 7.89282L 0 5.5ZM 6.57483 8.78735L 11 11L 16.0419 8.479L 11.6168 6.26636L 6.57483 8.78735ZM 13.4054 5.37207L 17.8306 7.58472L 22 5.5L 17.5748 3.28735L 13.4054 5.37207ZM 15.7859 2.39307L 11 0L 6.83069 2.08472L 11.6165 4.47754L 15.7859 2.39307Z"/>
<path id="path1_stroke_2x" d="M 5.04175 2.979L 5.48897 2.08458L 5.04174 1.86096L 4.59452 2.08459L 5.04175 2.979ZM 0 5.5L -0.447231 4.60558L -2.23607 5.50004L -0.447195 6.39444L 0 5.5ZM 9.82776 5.37207L 10.2749 6.26651L 12.0639 5.37211L 10.275 4.47765L 9.82776 5.37207ZM 4.78589 7.89282L 4.33869 8.78726L 4.78588 9.01084L 5.23308 8.78726L 4.78589 7.89282ZM 6.57483 8.78735L 6.12762 7.89293L 4.33879 8.78734L 6.12761 9.68178L 6.57483 8.78735ZM 11 11L 10.5528 11.8944L 11 12.118L 11.4472 11.8944L 11 11ZM 16.0419 8.479L 16.4891 9.37343L 18.2779 8.47902L 16.4891 7.58459L 16.0419 8.479ZM 11.6168 6.26636L 12.0641 5.37194L 11.6168 5.14832L 11.1696 5.37193L 11.6168 6.26636ZM 13.4054 5.37207L 12.9582 4.47764L 11.1694 5.37206L 12.9582 6.26649L 13.4054 5.37207ZM 17.8306 7.58472L 17.3833 8.47914L 17.8306 8.70275L 18.2778 8.47914L 17.8306 7.58472ZM 22 5.5L 22.4472 6.39443L 24.236 5.50001L 22.4472 4.60558L 22 5.5ZM 17.5748 3.28735L 18.0221 2.39293L 17.5748 2.16932L 17.1276 2.39293L 17.5748 3.28735ZM 15.7859 2.39307L 16.2331 3.28751L 18.022 2.39314L 16.2331 1.49865L 15.7859 2.39307ZM 11 0L 11.4472 -0.894418L 11 -1.11804L 10.5528 -0.894422L 11 0ZM 6.83069 2.08472L 6.38346 1.19029L 4.59462 2.08474L 6.38348 2.97915L 6.83069 2.08472ZM 11.6165 4.47754L 11.1693 5.37197L 11.6164 5.59556L 12.0636 5.37199L 11.6165 4.47754ZM 4.59452 2.08459L -0.447231 4.60558L 0.447231 6.39442L 5.48898 3.87342L 4.59452 2.08459ZM 10.275 4.47765L 5.48897 2.08458L 4.59453 3.87343L 9.38054 6.26649L 10.275 4.47765ZM 5.23308 8.78726L 10.2749 6.26651L 9.38057 4.47763L 4.3387 6.99838L 5.23308 8.78726ZM -0.447195 6.39444L 4.33869 8.78726L 5.23308 6.99839L 0.447195 4.60556L -0.447195 6.39444ZM 6.12761 9.68178L 10.5528 11.8944L 11.4472 10.1056L 7.02205 7.89293L 6.12761 9.68178ZM 11.4472 11.8944L 16.4891 9.37343L 15.5946 7.58458L 10.5528 10.1056L 11.4472 11.8944ZM 16.4891 7.58459L 12.0641 5.37194L 11.1696 7.16077L 15.5946 9.37342L 16.4891 7.58459ZM 11.1696 5.37193L 6.12762 7.89293L 7.02204 9.68178L 12.064 7.16078L 11.1696 5.37193ZM 12.9582 6.26649L 17.3833 8.47914L 18.2778 6.69029L 13.8526 4.47765L 12.9582 6.26649ZM 18.2778 8.47914L 22.4472 6.39443L 21.5528 4.60557L 17.3834 6.69029L 18.2778 8.47914ZM 22.4472 4.60558L 18.0221 2.39293L 17.1276 4.18178L 21.5528 6.39442L 22.4472 4.60558ZM 17.1276 2.39293L 12.9582 4.47764L 13.8526 6.2665L 18.022 4.18178L 17.1276 2.39293ZM 16.2331 1.49865L 11.4472 -0.894418L 10.5528 0.894418L 15.3387 3.28748L 16.2331 1.49865ZM 10.5528 -0.894422L 6.38346 1.19029L 7.27791 2.97914L 11.4472 0.894422L 10.5528 -0.894422ZM 6.38348 2.97915L 11.1693 5.37197L 12.0637 3.58311L 7.27789 1.19029L 6.38348 2.97915ZM 12.0636 5.37199L 16.2331 3.28751L 15.3387 1.49862L 11.1693 3.58309L 12.0636 5.37199Z"/>
</defs>
</svg>
